<svg width="38" height="38" viewBox="0 0 38 38" fill="none" xmlns="http://www.w3.org/2000/svg">
<rect width="37.0909" height="37.0909" rx="18.5455" fill="#0A66C2"/>
<g clip-path="url(#clip0_1_1767)">
<path d="M7.72727 10.6136C7.72727 9.91747 7.97093 9.34314 8.45823 8.89066C8.94553 8.43816 9.57904 8.21191 10.3587 8.21191C11.1245 8.21191 11.7441 8.43467 12.2174 8.88022C12.7047 9.33968 12.9484 9.93835 12.9484 10.6763C12.9484 11.3446 12.7117 11.9015 12.2383 12.347C11.751 12.8065 11.1106 13.0362 10.317 13.0362H10.2961C9.5303 13.0362 8.91074 12.8065 8.43735 12.347C7.96396 11.8876 7.72727 11.3098 7.72727 10.6136ZM7.99877 28.8876V14.9367H12.6351V28.8876H7.99877ZM15.2039 28.8876H19.8403V21.0977C19.8403 20.6103 19.896 20.2344 20.0074 19.9699C20.2023 19.4965 20.4982 19.0962 20.895 18.769C21.2918 18.4418 21.7895 18.2783 22.3882 18.2783C23.9476 18.2783 24.7273 19.3294 24.7273 21.4318V28.8876H29.3636V20.8888C29.3636 18.8282 28.8763 17.2654 27.9017 16.2002C26.9271 15.1351 25.6392 14.6026 24.0381 14.6026C22.242 14.6026 20.8428 15.3753 19.8403 16.9208V16.9625H19.8194L19.8403 16.9208V14.9367H15.2039C15.2318 15.3823 15.2457 16.7676 15.2457 19.0927C15.2457 21.4179 15.2318 24.6828 15.2039 28.8876Z" fill="white"/>
</g>
<defs>
<clipPath id="clip0_1_1767">
<rect x="7.72727" y="7.72729" width="21.6364" height="21.6364" fill="white"/>
</clipPath>
</defs>
</svg>
